<svg width="68" height="66" viewBox="0 0 68 66" fill="none" xmlns="http://www.w3.org/2000/svg">
<path id="head" d="M5.17536 37.0144C10.628 39.0925 16.563 39.5597 22.2736 38.3604C27.9843 37.1612 33.2299 34.346 37.3861 30.2501C34.8098 37.0565 35.5301 65.9241 35.5301 65.9241C35.5301 65.9241 58.3768 55.0774 61.4764 53.1805C79.7835 41.9764 54.5345 -6.76234 33.5301 0.924119C29.9725 2.226 27.0011 3.75785 25.562 7.26201C22.4257 3.39326 16.4888 2.55414 11.9221 4.54128C7.35533 6.52842 4.10891 10.8347 2.36335 15.4991C0.985106 19.2631 0.449297 23.2836 0.793648 27.2771C1.138 31.2707 2.35417 35.1401 4.35639 38.6125L5.17536 37.0144Z" fill="black"/>
</svg>
